<svg width="450" height="403" viewBox="0 0 450 403" fill="none" xmlns="http://www.w3.org/2000/svg">
<path d="M60.06 0.41333C61.5534 0.199997 63.06 0.0800114 64.58 0.0533447C171.3 -0.0399886 278.033 0.173333 384.753 0C419.353 1.25333 448.887 32.9467 449.073 67.3467C449.007 147.373 449.18 227.387 448.953 307.4C448.167 315.6 435.953 317.72 432.1 310.64C429.273 300.893 432.713 290.653 431.14 280.733C430.967 208.733 431.127 136.72 431.06 64.72C430.193 38.5333 405.353 16.2667 379.34 17.4C279.34 17.4933 179.34 17.2933 79.34 17.4533C72.6467 17.5467 65.8733 16.92 59.3 18.52C36.1933 22.36 17.7667 43.9733 17.3134 67.32C17.3534 154.013 17.2067 240.693 17.3534 327.387C18.4734 347.733 33.4733 366.507 53.0067 372.253C64.6333 375.493 76.7667 374.24 88.6867 374.413C173.54 374.467 258.42 374.413 343.273 374.48C347.927 373.987 351.407 379 351.087 383.293C351.153 387.893 346.727 392.36 342.06 391.893C251.367 391.76 160.687 391.867 70.0067 391.813C53.42 392.44 36.7933 386.667 24.0467 376.053C10.0467 365.013 1.40666 347.787 0.0333268 330.107C-0.00667317 241.627 -0.0199935 153.133 0.0466732 64.6533C0.766673 48.2933 8.24668 32.6533 19.4334 20.8267C30.42 10.0533 44.7667 2.58666 60.06 0.41333Z" fill="#1C202A"/>
<path d="M377.753 298.453C386.033 305.68 392.953 314.267 400.713 322.013C412.02 333.387 423.06 345.027 434.22 356.533C438.327 360.707 444.407 364.733 443.887 371.387C443.74 379.68 435.913 384.173 430.78 389.52C424.9 394.573 419.953 402.493 411.34 402.573C402.633 402.493 398.033 394.293 392.327 389.08C377.34 374.72 363.38 359.36 348.647 344.76C345.887 341.64 341.967 339.147 340.86 334.893C349.473 327.8 356.953 319.453 365.167 311.907C369.54 307.587 374.38 303.653 377.753 298.453Z" fill="#1C202A"/>
<path d="M280.647 79.5334C291.607 77.3067 302.847 76.8134 313.993 77.6001C321.1 78.8934 326.02 86.4267 323.927 93.4534C322.34 98.0267 317.713 101.613 312.753 101.173C282.887 99.2 253.353 106.973 225.847 117.973C208.7 124.307 192.353 132.667 176.767 142.187C167.047 148.093 157.833 155.16 150.807 164.187C149.247 166.013 149.18 168.453 148.953 170.733C157.02 176.853 167.287 178.493 177.02 179.987C203.22 183.32 229.753 184.227 255.713 189.333C265.22 191.547 275.7 194.04 282.367 201.733C288.567 209.373 287.473 220.773 281.34 228.107C274.953 235.92 265.54 240.307 256.753 244.84C227.273 259.827 195.913 271.293 168.1 289.467C162.967 292.973 156.847 295.907 153.887 301.68C164.74 304.947 176.167 303.96 187.327 303.96C230.327 301.187 270.98 285.773 312.86 277.027C318.42 275.613 324.22 275.373 329.927 275.787C333.993 275.987 337.167 278.827 340.407 280.973C343.167 283.053 346.607 283.76 349.687 285.2C353.247 286.88 355.273 291.027 359.353 291.72C365.78 293.067 371.833 295.68 377.753 298.453C374.38 303.653 369.54 307.587 365.167 311.907C356.953 319.453 349.473 327.8 340.86 334.893C340.38 334.187 339.42 332.773 338.94 332.053C338.607 326.267 336.607 320.76 333.5 315.893C329.753 309.813 332.34 299.787 324.593 296.427C298.5 301.067 273.273 309.413 247.513 315.52C223.82 320.813 199.753 325.907 175.34 325.387C163.46 325.4 150.447 325.533 140.287 318.44C133.22 313.747 130.127 303.987 133.38 296.107C137.153 286.453 145.433 279.547 153.713 273.773C177.42 257.453 204.06 246.267 229.967 234.027C241.153 227.84 253.647 223.68 263.393 215.173C258.313 211.467 251.86 210.88 245.887 209.707C215.873 204.48 185.18 204.28 155.34 197.987C145.9 195.64 136.593 190.493 131.407 182.027C125.913 172.853 127.753 160.84 133.527 152.24C140.18 140.907 151.073 133.093 161.607 125.667C186.58 109.787 213.927 97.8934 242.033 88.8134C254.633 84.6934 267.487 81.2801 280.647 79.5334Z" fill="#1471FC"/>
</svg>
