<svg width="2076" height="403" viewBox="0 0 2076 403" fill="none" xmlns="http://www.w3.org/2000/svg">
<path d="M60.06 0.41333C61.5534 0.199997 63.06 0.0800114 64.58 0.0533447C171.3 -0.0399886 278.033 0.173333 384.753 0C419.353 1.25333 448.887 32.9467 449.073 67.3467C449.007 147.373 449.18 227.387 448.953 307.4C448.167 315.6 435.953 317.72 432.1 310.64C429.273 300.893 432.713 290.653 431.14 280.733C430.967 208.733 431.127 136.72 431.06 64.72C430.193 38.5333 405.353 16.2667 379.34 17.4C279.34 17.4933 179.34 17.2933 79.34 17.4533C72.6467 17.5467 65.8733 16.92 59.3 18.52C36.1933 22.36 17.7667 43.9733 17.3134 67.32C17.3534 154.013 17.2067 240.693 17.3534 327.387C18.4734 347.733 33.4733 366.507 53.0067 372.253C64.6333 375.493 76.7667 374.24 88.6867 374.413C173.54 374.467 258.42 374.413 343.273 374.48C347.927 373.987 351.407 379 351.087 383.293C351.153 387.893 346.727 392.36 342.06 391.893C251.367 391.76 160.687 391.867 70.0067 391.813C53.42 392.44 36.7933 386.667 24.0467 376.053C10.0467 365.013 1.40666 347.787 0.0333268 330.107C-0.00667317 241.627 -0.0199935 153.133 0.0466732 64.6533C0.766673 48.2933 8.24668 32.6533 19.4334 20.8267C30.42 10.0533 44.7667 2.58666 60.06 0.41333Z" fill="#1C202A"/>
<path d="M725.033 96.7867C724.967 87.3334 737.807 83.0534 744.38 89.0001C748.713 92.3734 749.287 98.2934 749.087 103.387C749.06 136.36 749.02 169.333 749.073 202.293C767.233 184.947 786.247 168.507 804.033 150.76C807.98 147.187 812.113 142.36 818.007 142.827C824.607 142.48 830.953 148.6 829.753 155.373C829.967 160 825.86 162.827 822.82 165.56C810.833 176.6 798.553 187.293 786.3 198C800.033 217.413 814.767 236.08 828.833 255.24C831.687 259.173 835.567 262.587 837.087 267.333C838.94 274.653 832.073 282.253 824.673 281.68C820.82 282.093 817.167 280.12 814.993 277C799.527 256.133 784.673 234.76 768.727 214.267C762.447 220.147 755.513 225.32 749.647 231.64C748.687 233.613 749.233 235.92 749.087 238.04C749.073 249.4 749.167 260.76 748.927 272.107C747.273 281.253 734.74 284.907 728.087 278.76C723.207 274.6 725.487 267.6 724.953 262.053C724.087 252.733 724.193 243.373 724.98 234.053C724.313 221.2 723.873 208.267 724.927 195.4C725.127 162.533 724.82 129.653 725.033 96.7867Z" fill="#1C202A"/>
<path d="M1243.63 91.56C1248.26 84.2533 1260.9 84.52 1264.91 92.32C1266.81 97.5867 1266.35 103.24 1266.39 108.733C1266.39 125.373 1266.42 142.027 1266.5 158.667C1271.15 154.2 1275.69 149.4 1281.77 146.853C1292.66 142.133 1304.99 140.2 1316.71 142.68C1328.78 144.227 1340.54 150.387 1347.54 160.52C1352.43 167.4 1355.49 175.507 1357.18 183.747C1359.25 206.227 1358.22 228.853 1358.15 251.4C1356.41 259.613 1360.51 268.533 1356.29 276.24C1353.22 281.907 1345.83 282.893 1340.21 281.08C1336.43 279.333 1333.61 275.48 1333.51 271.267C1333.31 246.44 1333.77 221.587 1333.34 196.76C1333.17 185.573 1328.26 174.12 1318.37 168.267C1302.7 159.64 1280.33 165.013 1271.46 180.92C1265.49 190.427 1266.37 201.987 1266.33 212.733C1266.27 231.4 1266.35 250.08 1266.38 268.747C1266.75 274.227 1263.06 279.947 1257.67 281.387C1253.73 281.827 1249.17 282.133 1245.93 279.413C1243.06 277.28 1241.63 273.64 1241.63 270.147C1241.65 215.453 1241.73 160.76 1241.63 106.08C1241.7 101.2 1240.89 95.8933 1243.63 91.56Z" fill="#1C202A"/>
<path d="M1012.38 110.093C1013.94 100.253 1029.06 97.5867 1034.22 105.827C1036.06 108.133 1036.13 111.173 1036.13 114C1036.13 124.067 1035.79 134.147 1036.37 144.213C1048.02 144.12 1059.69 144.187 1071.35 144.173C1079.11 144.16 1083.38 153.76 1080.05 160.173C1078.38 164.68 1073.22 166.627 1068.74 166.453C1057.91 166.307 1047.1 166.533 1036.27 166.373C1035.93 188.933 1036.06 211.507 1036.15 234.067C1036.65 241.16 1037.77 249.053 1043.22 254.213C1048.82 260.293 1058.17 261.64 1065.82 259.173C1069.18 258.347 1072.98 256.16 1076.3 258.387C1081.82 260.8 1082.69 267.96 1080.91 273.067C1079.13 277.36 1074.83 279.853 1070.47 280.84C1060.02 283.413 1048.7 283.56 1038.46 280.013C1028.38 276.427 1020.67 267.987 1016.39 258.36C1013.06 250.733 1012.06 242.307 1012.18 234.053C1012.15 211.533 1012.11 189.013 1012.15 166.493C1004.55 165.96 996.687 167.48 989.287 165.307C980.687 161.467 981.98 146.493 991.38 144.48C998.3 143.92 1005.26 144.227 1012.21 144.253C1012.22 132.867 1011.87 121.453 1012.38 110.093Z" fill="#1C202A"/>
<path d="M625.247 143.133C643.807 139.32 664.26 142.52 679.913 153.493C686.1 158.347 692.567 165.227 691.807 173.707C691.22 181.08 682.3 186.12 675.66 182.907C670.633 181.507 669.5 175.853 666.327 172.427C661.207 166.747 653.34 164.733 645.993 164.173C637.66 163.84 628.633 163.387 621.233 167.893C615.26 171.227 611.46 179.08 614.367 185.613C616.46 191.427 622.513 194.413 628.06 196.08C645.02 200.613 662.98 202.373 678.78 210.52C690.087 216.6 696.247 229.547 695.873 242.12C695.393 250.973 693.393 260.427 686.86 266.907C676.553 279.067 659.873 282.733 644.673 283.827C627.433 284.187 608.873 280.307 596.007 268.053C590.033 262.333 584.54 254.053 586.94 245.427C589.327 238.76 597.54 236.893 603.62 239.253C608.473 241.64 609.167 247.693 612.673 251.387C619.727 258.96 630.527 261.973 640.647 261.613C649.033 261.907 657.94 260.68 664.913 255.653C671.887 250.733 673.927 239.773 668.273 233.12C662.86 226.867 654.193 225.533 646.58 223.72C629.86 220.093 611.567 217.6 598.3 205.773C589.353 197.773 587.993 184.667 589.753 173.453C592.047 164.453 597.367 155.88 605.433 150.987C611.513 147.267 618.207 144.427 625.247 143.133Z" fill="#1C202A"/>
<path d="M873.993 152.813C888.993 142.667 908.34 139.347 925.98 143.147C938.953 145.773 951.42 152.72 958.9 163.88C969.18 177.853 970.98 195.947 969.62 212.747C968.767 217.52 964.287 221.347 959.433 221.307C931.513 221.36 903.607 221.32 875.687 221.333C874.9 233.987 880.02 247.427 890.74 254.707C903.74 263.413 921.727 263.04 935.02 255.187C940.7 252 943.033 245.4 948.233 241.76C952.327 240.787 957.447 240.213 960.873 243.24C966.873 247.16 966.847 256.253 962.86 261.573C958.127 268.013 951.607 273.027 944.553 276.68C927.073 284.973 906.473 285.84 888.18 279.76C874.633 274.733 862.647 264.613 856.82 251.24C852.367 241.293 850.26 230.333 850.42 219.453C850.5 208.227 849.553 196.747 852.82 185.827C855.7 172.76 863.5 161.013 873.993 152.813ZM886.553 173.28C878.993 180 875.927 190.373 875.54 200.2C898.913 200.067 922.287 200.253 945.66 200.173C946.38 187.013 940.02 172.907 927.647 167.24C914.353 161.453 897.3 163.053 886.553 173.28Z" fill="#1C202A"/>
<path d="M1142.63 143.253C1157.13 139.747 1172.51 141.773 1186.3 147.12C1197.34 151.347 1206.81 159.867 1211.69 170.68C1212.66 175.16 1213.23 180.84 1209.47 184.227C1205.93 188.533 1199.86 188.853 1194.81 187.72C1191.49 186.2 1190.1 182.64 1188.45 179.653C1184.49 171.88 1176.42 166.813 1168.02 165.16C1156.37 162.76 1142.89 164.12 1133.94 172.68C1125.03 180.667 1122.18 193.213 1122.41 204.747C1122.66 216.667 1120.94 229.24 1126.22 240.387C1130.38 250.853 1139.97 259.187 1151.33 260.6C1162.82 262.24 1176.19 260.013 1184.41 251.12C1188.58 246.88 1189.82 239.72 1196.03 237.707C1200.14 236.893 1204.97 236.8 1208.26 239.84C1213.51 243.253 1212.9 250.493 1211.46 255.773C1207.57 264.573 1199.86 271.027 1191.74 275.84C1182.26 281.08 1171.31 282.987 1160.63 283.827C1143.7 283.8 1125.54 279.187 1113.66 266.4C1102.25 254.733 1097.86 238.027 1097.25 222.12C1097.33 209.48 1096.3 196.56 1099.82 184.24C1102.87 173.787 1108.03 163.653 1116.1 156.173C1123.57 149.56 1132.98 145.467 1142.63 143.253Z" fill="#1C202A"/>
<path d="M377.753 298.453C386.033 305.68 392.953 314.267 400.713 322.013C412.02 333.387 423.06 345.027 434.22 356.533C438.327 360.707 444.407 364.733 443.887 371.387C443.74 379.68 435.913 384.173 430.78 389.52C424.9 394.573 419.953 402.493 411.34 402.573C402.633 402.493 398.033 394.293 392.327 389.08C377.34 374.72 363.38 359.36 348.647 344.76C345.887 341.64 341.967 339.147 340.86 334.893C349.473 327.8 356.953 319.453 365.167 311.907C369.54 307.587 374.38 303.653 377.753 298.453Z" fill="#1C202A"/>
<path d="M280.647 79.5334C291.607 77.3067 302.847 76.8134 313.993 77.6001C321.1 78.8934 326.02 86.4267 323.927 93.4534C322.34 98.0267 317.713 101.613 312.753 101.173C282.887 99.2 253.353 106.973 225.847 117.973C208.7 124.307 192.353 132.667 176.767 142.187C167.047 148.093 157.833 155.16 150.807 164.187C149.247 166.013 149.18 168.453 148.953 170.733C157.02 176.853 167.287 178.493 177.02 179.987C203.22 183.32 229.753 184.227 255.713 189.333C265.22 191.547 275.7 194.04 282.367 201.733C288.567 209.373 287.473 220.773 281.34 228.107C274.953 235.92 265.54 240.307 256.753 244.84C227.273 259.827 195.913 271.293 168.1 289.467C162.967 292.973 156.847 295.907 153.887 301.68C164.74 304.947 176.167 303.96 187.327 303.96C230.327 301.187 270.98 285.773 312.86 277.027C318.42 275.613 324.22 275.373 329.927 275.787C333.993 275.987 337.167 278.827 340.407 280.973C343.167 283.053 346.607 283.76 349.687 285.2C353.247 286.88 355.273 291.027 359.353 291.72C365.78 293.067 371.833 295.68 377.753 298.453C374.38 303.653 369.54 307.587 365.167 311.907C356.953 319.453 349.473 327.8 340.86 334.893C340.38 334.187 339.42 332.773 338.94 332.053C338.607 326.267 336.607 320.76 333.5 315.893C329.753 309.813 332.34 299.787 324.593 296.427C298.5 301.067 273.273 309.413 247.513 315.52C223.82 320.813 199.753 325.907 175.34 325.387C163.46 325.4 150.447 325.533 140.287 318.44C133.22 313.747 130.127 303.987 133.38 296.107C137.153 286.453 145.433 279.547 153.713 273.773C177.42 257.453 204.06 246.267 229.967 234.027C241.153 227.84 253.647 223.68 263.393 215.173C258.313 211.467 251.86 210.88 245.887 209.707C215.873 204.48 185.18 204.28 155.34 197.987C145.9 195.64 136.593 190.493 131.407 182.027C125.913 172.853 127.753 160.84 133.527 152.24C140.18 140.907 151.073 133.093 161.607 125.667C186.58 109.787 213.927 97.8934 242.033 88.8134C254.633 84.6934 267.487 81.2801 280.647 79.5334Z" fill="#1471FC"/>
<path d="M1431.86 142.6C1443.99 140.227 1456.54 141.813 1468.27 145.387C1479.07 149.107 1489.43 156.16 1494.38 166.76C1495.31 171.187 1495.79 176.787 1492.07 180.12C1488.75 183.84 1483.02 185.107 1478.54 182.88C1473.74 181 1472.82 175.28 1469.51 171.88C1464.19 166.253 1456.17 164.2 1448.66 164.053C1441.62 163.907 1434.25 163.693 1427.66 166.52C1421.35 169.28 1416.35 176.267 1417.9 183.333C1419.11 190.173 1425.82 194.08 1431.9 196.067C1445.98 200.32 1461.17 200.453 1474.66 206.733C1483.89 210.28 1492.54 216.573 1496.67 225.8C1498.43 230.08 1499.19 234.733 1499.71 239.333C1500.73 253.307 1493.09 267.28 1481.23 274.587C1470.71 281.093 1458.15 283.107 1446.01 283.84C1432.65 283.733 1418.59 281.867 1407.33 274.107C1399.11 268.413 1390.65 260.667 1389.71 250.093C1390.07 242.827 1397.38 237.187 1404.53 238.627C1409.47 238.747 1411.87 243.64 1414.02 247.387C1419.53 257.8 1432.07 262.213 1443.31 261.68C1452.95 262.307 1463.57 260.453 1470.58 253.28C1476.67 246.867 1475.58 235.507 1468.31 230.44C1459.39 224.267 1448.11 224.173 1437.91 221.667C1427.01 218.92 1415.69 216.333 1406.39 209.667C1397.55 203.573 1392.47 192.747 1393.17 182.08C1392.47 172.267 1397.15 162.8 1403.75 155.8C1411.42 148.6 1421.47 144.067 1431.86 142.6Z" fill="#1471FC"/>
<path d="M1568.94 146.32C1582.82 140.547 1598.69 140.32 1612.99 144.68C1627.33 149.693 1639.25 161.187 1644.69 175.387C1648.94 185.04 1650.05 195.64 1650.51 206.067C1650.86 221.133 1650.38 236.787 1644.05 250.733C1640.78 259.893 1634.06 267.347 1626.42 273.147C1611.97 283.6 1592.66 285.827 1575.62 281.68C1565.77 279.133 1557.87 272.587 1550.62 265.827C1550.66 286.36 1550.59 306.907 1550.62 327.453C1550.75 331.107 1548.98 334.6 1546.35 337.053C1543.18 340.16 1538.25 339.187 1534.27 338.907C1529.99 337.653 1526.26 333.4 1526.5 328.787C1526.63 270.987 1526.57 213.173 1526.61 155.373C1525.85 145.52 1539.22 139 1546.63 145.48C1551.97 149.267 1550.78 156.387 1550.47 162.027C1555.1 155.24 1561.25 149.44 1568.94 146.32ZM1579.83 165.507C1570.05 167.693 1560.91 174.147 1556.46 183.253C1551.95 192.8 1550.45 203.573 1550.81 214.067C1551.33 224.253 1551.97 234.973 1557.7 243.773C1568.31 263.627 1599.37 267.013 1614.25 250.293C1620.82 243.04 1624.26 233.147 1624.45 223.427C1625.49 213.453 1625.07 203.387 1623.66 193.48C1621.81 182.48 1614.66 172.32 1604.57 167.413C1596.85 163.973 1588.01 163.813 1579.83 165.507Z" fill="#1471FC"/>
<path d="M1707.18 144.76C1719.06 141.813 1731.61 140.253 1743.73 142.747C1755.05 144.467 1766.39 149.24 1774.13 157.933C1780.93 166.653 1785.78 177.413 1785.54 188.653C1785.49 216.653 1785.62 244.667 1785.49 272.667C1784.87 282.44 1770.37 285.013 1764.82 277.92C1761.87 274.853 1761.53 270.467 1761.01 266.493C1752.67 274.147 1742.93 281.147 1731.37 282.467C1717.59 283.693 1702.43 284.373 1690.41 276.32C1670.62 264.147 1666.74 234.52 1680.25 216.333C1685.5 208.6 1694.33 204.293 1703.1 201.84C1721.69 195.88 1741.49 197.787 1760.7 197.653C1761.93 188.92 1760.98 178.907 1754.29 172.467C1747.09 164.853 1735.9 163.44 1725.97 164.267C1717.46 164.933 1707.73 167.16 1702.98 175C1700.5 179.267 1697.03 184.173 1691.34 183.027C1682.75 184.2 1676.17 174.107 1679.73 166.507C1684.58 155.32 1695.79 148.067 1707.18 144.76ZM1708.73 223.44C1699.15 227.507 1694.7 239.64 1698.79 249.08C1701.75 257.347 1710.89 261.693 1719.27 261.547C1732.7 262.467 1747.43 257.427 1755.31 246.027C1760.41 238.027 1762.29 228.04 1760.57 218.72C1743.3 219.773 1725.09 216.24 1708.73 223.44Z" fill="#1471FC"/>
<path d="M1863.93 142.987C1877.34 140.173 1891.51 141.533 1904.29 146.44C1914.5 150.32 1923.65 157.573 1928.93 167.24C1931.21 171.213 1931.43 176 1930.83 180.453C1928.59 188.307 1917.58 190.893 1911.5 185.96C1907.65 181.667 1906.25 175.52 1901.51 171.92C1886.14 159.947 1860.31 161.56 1848.89 178.28C1839.75 191.427 1840.91 208.2 1841.31 223.413C1842.17 233.813 1845.13 245 1853.3 252.12C1861.17 259.653 1872.77 262.213 1883.35 260.827C1892.73 259.133 1902.81 255.04 1907.42 246.107C1909.47 241.867 1912.97 237.813 1917.99 237.413C1922.73 236.613 1927.58 239.173 1930.07 243.2C1933.47 250.28 1930.03 258.44 1925.33 264.04C1917.26 273.227 1906.02 279.573 1894.02 281.853C1883.5 283.773 1872.67 283.88 1862.14 282.093C1848.49 279.467 1835.93 271.68 1827.42 260.707C1820.39 251.253 1817.42 239.453 1815.97 227.96C1815.91 219.773 1814.38 211.587 1815.51 203.413C1816.15 189.96 1819.59 176.133 1827.81 165.227C1836.06 153.2 1849.69 145.48 1863.93 142.987Z" fill="#1471FC"/>
<path d="M1978.55 153.28C1988.66 145.547 2001.41 142.093 2013.97 141.52C2026.62 141.24 2039.73 143.827 2050.34 151.04C2065.1 160.16 2073.45 177.253 2074.69 194.227C2074.91 200.293 2076.35 206.453 2074.85 212.48C2073.93 217.747 2068.74 221.667 2063.42 221.253C2035.75 221.293 2008.09 221.387 1980.43 221.227C1980.58 231.987 1983.35 243.653 1991.43 251.307C1998.94 258.147 2009.23 261.72 2019.37 261.347C2031.11 261.213 2043.62 256.373 2049.86 245.893C2054.5 237.973 2066.91 240.493 2070.62 247.987C2071.42 252.253 2071.58 257.187 2068.82 260.84C2061.71 271.067 2050.3 277.613 2038.46 280.88C2023.99 284.44 2008.51 284.853 1994.23 280.24C1984.83 276.947 1975.81 271.747 1969.63 263.773C1961.85 253.96 1956.83 241.84 1955.71 229.333C1954.21 215.88 1954.01 202.093 1956.82 188.8C1960.26 175.2 1966.94 161.68 1978.55 153.28ZM1998.5 167.96C1987.29 174.44 1980.45 187.307 1980.85 200.2C2004.22 200.08 2027.61 200.133 2050.99 200.227C2051.25 192.667 2049.42 185.067 2045.5 178.587C2040.33 170.68 2031.59 164.827 2022.03 164.267C2014.07 163.773 2005.63 163.987 1998.5 167.96Z" fill="#1471FC"/>
</svg>
