<svg width="449" height="399" viewBox="0 0 449 399" fill="none" xmlns="http://www.w3.org/2000/svg">
<path d="M39.2795 6.16875C48.4662 2.14208 58.5062 -0.35127 68.5862 0.0887302C170.786 0.182064 273 0.102064 375.2 0.0887302C380.946 0.32873 386.84 -0.617925 392.48 0.808742C399.546 1.48874 406.226 4.12873 412.64 7.04873C427 14.4354 439.04 26.7821 444.266 42.2487C446.4 48.1954 448.24 54.3687 448.186 60.7554C448.186 142.515 448.106 224.275 448.12 306.035C448.453 313.275 438.08 317.622 433.2 312.129C430.8 310.422 430.493 307.422 430.6 304.715C430.666 229.155 430.586 153.609 430.706 78.0487C430.426 70.5154 431.32 62.8754 429.88 55.4354C427.24 39.6754 415.199 26.4221 400.506 20.6621C399.173 20.1954 397.853 19.6887 396.56 19.1554C394.72 18.8621 392.88 18.6354 391.053 18.3687C389.4 17.7687 387.693 17.4754 385.96 17.5021C295.253 17.4887 204.56 17.5021 113.853 17.4887C96.0662 17.7287 78.2662 17.1154 60.4929 17.7687C58.3729 18.7687 55.9995 18.8221 53.7329 19.1287C52.3862 19.5821 51.0529 20.0354 49.7062 20.4754C34.7062 25.7687 23.1462 38.6487 18.9329 53.9154C18.5862 56.1954 18.6262 58.6087 17.6262 60.7421C17.1462 104.742 17.5462 148.769 17.3995 192.782C17.5595 238.542 17.1062 284.329 17.6262 330.089C19.7995 349.635 35.7862 366.822 55.2929 369.902C56.5995 370.395 57.9462 370.729 59.3595 370.742C154.666 370.849 249.973 370.689 345.28 370.782C347.373 372.835 350.479 374.702 350.599 377.969C351.853 383.102 347.186 388.862 341.839 388.195C247.639 388.222 153.426 388.222 59.2262 388.222C56.9729 388.182 54.7195 387.995 52.5728 387.355C50.7595 387.009 48.9462 386.689 47.1462 386.382C30.3195 381.275 14.9462 370.115 6.82618 354.275C3.22618 345.755 -0.0137969 336.809 0.0128698 327.449C0.0528698 239.435 -0.0538115 151.422 0.0395218 63.4087C-0.000478191 61.6221 0.119533 59.8354 0.759533 58.1687C1.03953 55.9021 1.23954 53.6487 1.51954 51.3954C2.26621 49.6354 2.6662 47.7687 2.97287 45.8754C4.23954 42.7687 5.49288 39.6621 6.77288 36.5554C13.8662 23.1821 25.4395 12.3554 39.2795 6.16875Z" fill="#FCFBFC"/>
<path d="M378.08 295.929C399.093 315.555 417.88 337.422 438.586 357.382C441.173 359.555 442.506 362.702 443.613 365.822C443.6 366.915 443.573 369.115 443.56 370.222C442.146 373.862 440.146 377.369 436.973 379.755C430.426 384.782 425.32 391.409 418.746 396.382C415.106 399.222 410.213 399.289 405.92 398.182C401.346 395.755 398.146 391.609 394.466 388.115C376.84 369.902 358.213 352.649 340.933 334.129C341.013 333.595 341.186 332.529 341.266 331.995C349.36 324.155 357.333 316.182 365.68 308.595C369.813 304.382 374.653 300.795 378.08 295.929Z" fill="#FCFBFC"/>
<path d="M263.279 80.6038C274.399 78.8038 285.706 75.3904 297.039 77.3104C305.186 79.1371 308.319 90.4571 302.426 96.3238C298.359 101.004 291.733 99.3504 286.306 99.6304C272.186 100.75 258.439 104.51 244.799 108.204C227.279 113.004 210.706 120.59 194.146 127.924C178.453 136.004 162.253 144.11 149.733 156.844C146.879 159.977 142.906 163.924 144.626 168.577C147.359 172.737 152.613 173.737 157.106 174.87C185.159 181.47 214.266 179.657 242.453 185.564C252.893 187.51 264.106 189.67 272.439 196.724C280.839 203.71 281.053 217.31 274.186 225.43C267.426 233.724 257.493 238.444 248.266 243.457C221.119 257.244 192.746 268.657 166.613 284.39C160.239 288.75 153.239 292.844 148.959 299.47C161.119 302.777 173.959 300.844 186.413 300.817C225.079 296.83 262.279 285.07 299.919 275.977C306.893 274.43 314.026 273.15 321.199 273.217C327.519 273.364 331.933 278.524 336.866 281.737C339.426 282.857 342.359 283.044 344.839 284.404C347.719 286.27 349.973 288.924 352.426 291.31C359.546 292.497 367.226 293.884 373.253 298.084C369.826 302.95 364.986 306.537 360.853 310.75C352.506 318.337 344.533 326.31 336.439 334.15L335.693 334.897C335.293 333.897 334.506 331.897 334.119 330.897C333.919 324.884 331.653 319.244 328.573 314.164C326.519 311.19 327.013 307.484 326.839 304.084C324.786 300.91 322.893 297.63 321.173 294.27C302.413 296.137 284.573 302.537 266.306 306.857C242.119 313.017 217.919 319.67 193.026 322.35C182.493 324.15 171.759 323.457 161.133 323.59C150.679 323.31 139.133 321.617 131.639 313.59C124.293 306.097 125.893 293.577 131.946 285.79C141.066 274.217 154.213 266.964 166.626 259.484C188.719 247.764 211.773 238.017 234.093 226.75C241.333 223.004 249.453 220.324 255.213 214.324C256.746 211.15 252.599 210.057 250.439 209.23C242.333 205.87 233.466 206.284 224.999 204.577C205.359 201.964 185.559 201.444 165.906 198.964C154.306 196.977 141.893 195.19 132.533 187.417C123.826 180.644 120.746 168.204 124.373 157.937C126.759 151.297 131.066 145.537 135.813 140.39C151.093 125.777 169.693 115.164 188.813 106.417C212.546 95.0038 237.613 86.4571 263.279 80.6038Z" fill="#136FFC"/>
</svg>
