<svg width="2070" height="399" viewBox="0 0 2070 399" fill="none" xmlns="http://www.w3.org/2000/svg">
<path d="M39.2795 6.16875C48.4662 2.14208 58.5062 -0.35127 68.5862 0.0887302C170.786 0.182064 273 0.102064 375.2 0.0887302C380.946 0.32873 386.84 -0.617925 392.48 0.808742C399.546 1.48874 406.226 4.12873 412.64 7.04873C427 14.4354 439.04 26.7821 444.266 42.2487C446.4 48.1954 448.24 54.3687 448.186 60.7554C448.186 142.515 448.106 224.275 448.12 306.035C448.453 313.275 438.08 317.622 433.2 312.129C430.8 310.422 430.493 307.422 430.6 304.715C430.666 229.155 430.586 153.609 430.706 78.0487C430.426 70.5154 431.32 62.8754 429.88 55.4354C427.24 39.6754 415.199 26.4221 400.506 20.6621C399.173 20.1954 397.853 19.6887 396.56 19.1554C394.72 18.8621 392.88 18.6354 391.053 18.3687C389.4 17.7687 387.693 17.4754 385.96 17.5021C295.253 17.4887 204.56 17.5021 113.853 17.4887C96.0662 17.7287 78.2662 17.1154 60.4929 17.7687C58.3729 18.7687 55.9995 18.8221 53.7329 19.1287C52.3862 19.5821 51.0529 20.0354 49.7062 20.4754C34.7062 25.7687 23.1462 38.6487 18.9329 53.9154C18.5862 56.1954 18.6262 58.6087 17.6262 60.7421C17.1462 104.742 17.5462 148.769 17.3995 192.782C17.5595 238.542 17.1062 284.329 17.6262 330.089C19.7995 349.635 35.7862 366.822 55.2929 369.902C56.5995 370.395 57.9462 370.729 59.3595 370.742C154.666 370.849 249.973 370.689 345.28 370.782C347.373 372.835 350.479 374.702 350.599 377.969C351.853 383.102 347.186 388.862 341.839 388.195C247.639 388.222 153.426 388.222 59.2262 388.222C56.9729 388.182 54.7195 387.995 52.5728 387.355C50.7595 387.009 48.9462 386.689 47.1462 386.382C30.3195 381.275 14.9462 370.115 6.82618 354.275C3.22618 345.755 -0.0137969 336.809 0.0128698 327.449C0.0528698 239.435 -0.0538115 151.422 0.0395218 63.4087C-0.000478191 61.6221 0.119533 59.8354 0.759533 58.1687C1.03953 55.9021 1.23954 53.6487 1.51954 51.3954C2.26621 49.6354 2.6662 47.7687 2.97287 45.8754C4.23954 42.7687 5.49288 39.6621 6.77288 36.5554C13.8662 23.1821 25.4395 12.3554 39.2795 6.16875Z" fill="#FCFBFC"/>
<path d="M732.426 92.1288C739.533 90.3154 748.813 94.1554 749.28 102.262C749.4 137.729 749.426 173.209 749.266 208.675C758.413 201.835 766.213 193.222 774.653 185.489C786.386 175.035 797.28 163.702 808.8 153.035C813.52 148.035 822.36 147.702 827.066 152.902C830.52 156.035 829.493 160.995 829.36 165.115C826.773 168.809 823.68 172.115 820.12 174.902C809.68 184.582 799.106 194.129 788.48 203.622C788.04 204.369 787.746 205.182 787.6 206.049C797.386 218.049 805.226 231.515 814.92 243.609C821.586 251.729 826.986 260.782 833.6 268.955C836.893 272.475 836.653 277.675 835.306 281.982C830.906 288.835 820 291.089 814.76 283.982C800.786 264.582 786.813 245.169 772.84 225.769C771.76 224.235 770.826 222.582 769.946 220.955C766.333 222.329 764.08 225.649 761.16 227.995C757.146 231.289 753.306 234.755 749.413 238.182C749.333 251.462 749.386 264.755 749.24 278.035C748.56 286.675 737.44 291.062 730.413 286.755C728.04 285.489 726.52 283.249 725.16 281.049C724.44 241.835 725.12 202.609 724.84 163.395C725.066 142.022 724.413 120.622 725.213 99.2621C725.626 98.5954 726.466 97.2488 726.88 96.5821C728.6 94.9554 730.48 93.4888 732.426 92.1288Z" fill="#FCFBFC"/>
<path d="M1241.47 101.849C1242.84 97.5954 1245.61 94.0621 1249.69 92.1154C1252.49 92.0354 1255.35 91.7154 1258.16 92.3021C1261.25 93.6487 1263.21 96.5287 1265.11 99.1821C1265.55 121.555 1265.24 143.929 1265.36 166.289C1270 160.275 1276.12 155.622 1282.96 152.355C1285.27 151.569 1287.56 150.769 1289.91 150.062C1300.29 147.129 1311.63 147.089 1322.07 149.755C1323.39 150.195 1324.72 150.635 1326.11 151.049C1336.79 154.795 1346.05 162.542 1350.92 172.862C1352.07 175.409 1353.15 177.995 1354.15 180.609C1355.08 184.195 1355.92 187.809 1356.41 191.489C1358.36 201.075 1357.11 210.982 1357.48 220.715C1357.49 238.942 1357.45 257.169 1357.49 275.395C1357.52 277.622 1357.2 279.849 1356.48 281.955C1354.69 284.302 1352.53 286.275 1350.16 287.955C1343.99 289.395 1337.11 287.942 1333.89 282.022C1333.32 279.862 1332.96 277.649 1333.05 275.422C1332.99 254.062 1333.03 232.715 1333 211.369C1333.12 203.302 1332.67 194.995 1329.64 187.422C1326.2 179.795 1319.32 173.609 1311.07 171.835C1305.87 170.355 1300.4 170.609 1295.09 171.062C1293.27 171.569 1291.44 172.022 1289.64 172.435C1288.33 172.929 1287.04 173.409 1285.76 173.889C1276.92 177.969 1269.65 185.995 1267.21 195.489C1264.08 208.102 1265.68 221.155 1265.32 233.995C1265.27 249.635 1265.49 265.289 1265.09 280.929C1262.6 284.782 1258.91 288.769 1253.88 288.275C1248.21 288.969 1243.21 284.782 1241.4 279.675C1241.47 220.395 1241.32 161.129 1241.47 101.849Z" fill="#FCFBFC"/>
<path d="M1012.11 116.475C1013.88 110.515 1019.64 105.822 1026.05 106.902C1027.4 107.382 1028.76 107.849 1030.16 108.302C1033.41 111.009 1036.11 114.969 1035.87 119.382C1035.77 129.475 1036.01 139.582 1035.91 149.675C1046.09 149.929 1056.32 149.262 1066.47 150.609L1066.63 149.529C1067.48 149.595 1069.2 149.715 1070.05 149.782C1074.36 150.155 1077.76 152.755 1079.89 156.435C1080.11 159.782 1080.08 163.142 1079.88 166.502C1077.68 169.129 1074.97 172.022 1071.27 171.955C1059.48 172.049 1047.69 171.902 1035.91 172.009C1036.04 195.849 1035.87 219.702 1035.93 243.542C1035.88 245.262 1036.17 246.995 1036.8 248.609C1037.07 250.449 1037.33 252.315 1037.6 254.182C1039.72 258.875 1042.28 264.035 1047.56 265.782C1054.28 267.875 1062.2 267.875 1068.48 264.355C1070.39 264.249 1072.31 264.155 1074.25 264.089C1075.97 265.435 1077.81 266.689 1079.29 268.342C1082.93 273.569 1081.69 281.995 1075.91 285.182C1072.08 287.542 1067.56 287.915 1063.33 289.062C1053.33 289.889 1042.97 289.249 1033.73 285.062C1024.57 280.475 1017.75 272.062 1014.8 262.289C1014.52 260.849 1014.24 259.422 1013.99 258.009C1011.63 249.329 1012.13 240.262 1012.13 231.369C1012.04 211.582 1012.24 191.795 1012.07 171.995C1004.95 172.022 997.84 171.969 990.733 171.969C987.986 170.235 985.613 168.009 983.88 165.262C983.893 162.395 983.933 159.529 984.013 156.662C985.626 154.502 987.426 152.502 989.386 150.635C996.88 150.249 1004.39 150.462 1011.89 150.422C1012.2 139.115 1012.17 127.795 1012.11 116.475Z" fill="#FCFBFC"/>
<path d="M615.04 152.409C619.813 150.609 624.8 149.515 629.786 148.489C640.026 147.769 650.52 147.355 660.546 150.022C662.253 150.582 663.973 151.142 665.706 151.715C676.32 155.342 686.573 162.182 691.266 172.729C692.826 177.289 692.946 183.115 689.266 186.729C687.413 188.902 684.506 189.502 681.986 190.542C678.973 190.289 675.68 190.009 673.266 188.035C670.893 186.209 670.04 183.222 668.533 180.769C666.693 177.689 663.56 175.769 660.68 173.809C650.973 169.489 640.133 170.089 629.826 171.022C628.066 171.755 626.28 172.422 624.52 173.102C621.16 174.289 618.693 176.915 616.186 179.315C614.16 183.435 613.586 188.235 614.853 192.675C617.08 197.742 622.36 200.169 627.146 202.249C628.466 202.675 629.8 203.102 631.133 203.529C632.92 203.942 634.733 204.395 636.48 205.035C638.306 205.315 640.133 205.569 641.986 205.862C648.533 207.489 655.24 208.409 661.733 210.315C665.906 211.062 669.88 212.622 673.826 214.155C684.44 218.555 692.813 228.049 695.56 239.235C696.2 245.889 696.786 252.769 695.106 259.315C692.266 271.329 682.6 280.502 671.493 285.169C664.226 288.275 656.36 289.062 648.706 290.409C643.386 290.435 637.88 291.289 632.693 289.809C629.96 289.515 627.226 289.302 624.506 289.009C620.453 287.742 616.346 286.649 612.4 285.075C601.48 280.049 590.826 271.635 587.746 259.489C586.413 253.889 588.626 248.289 593.68 245.462C598.08 243.875 602.666 244.662 606.693 246.849C607.813 248.315 608.88 249.849 609.546 251.595C614.48 263.849 628.733 269.075 641.106 268.355L641.293 269.155C642.573 269.155 645.16 269.142 646.44 269.142L646.64 268.355C649.48 268.209 652.333 267.969 655.186 267.675C659.813 265.889 664.76 264.182 667.92 260.102C673.493 254.169 673.28 243.662 666.986 238.315C662.146 234.262 655.773 233.155 649.973 231.129C648.12 230.822 646.266 230.555 644.453 230.249C640.146 228.942 635.613 228.555 631.333 227.182C629.88 226.929 628.44 226.675 627.013 226.435C621.56 224.995 616.213 223.262 611.013 221.102C603.253 217.689 596.173 212.155 592.84 204.142C591.066 200.595 590.64 196.609 589.6 192.849C589.44 190.102 589.426 187.369 589.56 184.635C590.4 181.462 591.04 178.249 591.986 175.129C595.8 164.409 604.96 156.982 615.04 152.409Z" fill="#FCFBFC"/>
<path d="M884.812 153.23C898.732 148.897 913.986 148.924 927.932 153.164C933.932 155.83 940.119 158.457 945.106 162.857C952.119 169.004 957.666 176.924 960.732 185.764C964.772 198.03 965.812 211.51 963.759 224.23C962.492 226.55 960.692 228.39 958.386 229.67C956.666 230.07 954.892 230.377 953.146 230.377C925.812 230.31 898.492 230.35 871.172 230.43C868.612 233.364 871.839 238.03 871.359 241.737C872.052 243.844 872.719 245.95 873.466 248.057C877.412 259.47 887.946 267.39 899.546 269.87C905.412 270.27 911.332 270.337 917.212 269.884C922.626 268.03 928.346 266.364 932.719 262.47C937.132 259.204 938.932 253.59 943.372 250.35C945.719 249.737 948.066 249.164 950.519 249.07C951.919 249.604 953.359 250.084 954.826 250.524C961.372 254.017 962.039 262.377 958.932 268.47C953.652 275.804 946.626 281.844 938.506 285.804C936.626 286.55 934.772 287.324 932.906 288.057C931.239 288.684 929.572 289.284 927.932 289.884C922.692 291.457 917.172 291.337 911.906 292.55C909.532 292.644 907.186 292.657 904.852 292.564C895.919 291.417 886.732 290.764 878.466 286.71C865.879 280.884 855.839 270.31 850.532 257.497C850.066 256.15 849.612 254.804 849.186 253.47C847.612 249.697 847.106 245.63 846.079 241.71C845.652 238.084 845.546 234.43 845.279 230.79C843.999 226.444 844.692 221.844 844.719 217.404C846.132 212.217 845.119 206.724 846.092 201.457C847.146 197.55 847.826 193.55 849.226 189.737C849.946 187.844 850.719 185.977 851.492 184.097C854.039 179.177 856.492 174.137 860.146 169.91C865.479 163.004 873.146 158.444 880.879 154.67C882.186 154.204 883.492 153.724 884.812 153.23ZM891.732 174.99C878.239 180.39 870.412 194.924 870.652 209.084C893.919 209.017 917.199 209.017 940.466 208.99C940.412 205.604 940.279 202.204 939.959 198.83C937.706 188.537 931.239 178.724 920.999 175.004C911.652 171.684 901.092 171.737 891.732 174.99Z" fill="#FCFBFC"/>
<path d="M1125.88 155.555C1141.15 147.182 1159.75 145.915 1176.44 150.195C1191.65 153.929 1206.28 164.022 1211.71 179.222C1212.95 185.555 1209.35 192.022 1203.19 194.049C1199.09 195.609 1194.35 194.262 1191.19 191.409C1188.89 188.649 1187.79 185.129 1185.67 182.275C1182.43 177.782 1177.48 174.902 1172.39 173.009C1169.79 172.275 1167.19 171.715 1164.63 171.009C1157.48 170.222 1150.13 170.489 1143.36 173.062C1132.64 176.982 1125.41 187.035 1122.85 197.889C1122.6 200.595 1122.53 203.355 1121.59 205.942C1121.29 214.795 1120.39 223.862 1122.07 232.622C1122.75 245.675 1129.8 258.862 1141.89 264.689C1144.91 265.835 1148.04 266.635 1151.11 267.702C1155.59 267.969 1160.09 267.969 1164.6 267.662C1173.43 266.035 1182.08 261.795 1187 253.995C1188.89 250.675 1189.99 246.342 1193.95 244.835C1200.88 241.489 1209.33 245.382 1211.68 252.635C1212.67 261.689 1206.96 269.729 1200.52 275.449C1196.48 279.035 1192.01 282.195 1187.09 284.422C1185.4 285.115 1183.72 285.795 1182.08 286.515C1176.75 288.142 1171.35 289.609 1165.75 289.835C1160.65 291.009 1155.08 291.049 1150.01 289.835C1147.27 289.515 1144.55 289.302 1141.84 289.009C1138.76 287.969 1135.64 287.115 1132.63 285.969C1130.77 285.182 1128.93 284.409 1127.09 283.675C1113.19 276.849 1103.49 263.422 1099.76 248.569C1097.57 242.649 1097.51 236.315 1096.32 230.195C1096 222.569 1095.93 214.929 1096.29 207.315C1097.59 200.262 1097.95 192.969 1100.76 186.249C1105 173.395 1113.71 161.822 1125.88 155.555Z" fill="#FCFBFC"/>
<path d="M378.08 295.929C399.093 315.555 417.88 337.422 438.586 357.382C441.173 359.555 442.506 362.702 443.613 365.822C443.6 366.915 443.573 369.115 443.56 370.222C442.146 373.862 440.146 377.369 436.973 379.755C430.426 384.782 425.32 391.409 418.746 396.382C415.106 399.222 410.213 399.289 405.92 398.182C401.346 395.755 398.146 391.609 394.466 388.115C376.84 369.902 358.213 352.649 340.933 334.129C341.013 333.595 341.186 332.529 341.266 331.995C349.36 324.155 357.333 316.182 365.68 308.595C369.813 304.382 374.653 300.795 378.08 295.929Z" fill="#FCFBFC"/>
<path d="M263.279 80.6038C274.399 78.8038 285.706 75.3904 297.039 77.3104C305.186 79.1371 308.319 90.4571 302.426 96.3238C298.359 101.004 291.733 99.3504 286.306 99.6304C272.186 100.75 258.439 104.51 244.799 108.204C227.279 113.004 210.706 120.59 194.146 127.924C178.453 136.004 162.253 144.11 149.733 156.844C146.879 159.977 142.906 163.924 144.626 168.577C147.359 172.737 152.613 173.737 157.106 174.87C185.159 181.47 214.266 179.657 242.453 185.564C252.893 187.51 264.106 189.67 272.439 196.724C280.839 203.71 281.053 217.31 274.186 225.43C267.426 233.724 257.493 238.444 248.266 243.457C221.119 257.244 192.746 268.657 166.613 284.39C160.239 288.75 153.239 292.844 148.959 299.47C161.119 302.777 173.959 300.844 186.413 300.817C225.079 296.83 262.279 285.07 299.919 275.977C306.893 274.43 314.026 273.15 321.199 273.217C327.519 273.364 331.933 278.524 336.866 281.737C339.426 282.857 342.359 283.044 344.839 284.404C347.719 286.27 349.973 288.924 352.426 291.31C359.546 292.497 367.226 293.884 373.253 298.084C369.826 302.95 364.986 306.537 360.853 310.75C352.506 318.337 344.533 326.31 336.439 334.15L335.693 334.897C335.293 333.897 334.506 331.897 334.119 330.897C333.919 324.884 331.653 319.244 328.573 314.164C326.519 311.19 327.013 307.484 326.839 304.084C324.786 300.91 322.893 297.63 321.173 294.27C302.413 296.137 284.573 302.537 266.306 306.857C242.119 313.017 217.919 319.67 193.026 322.35C182.493 324.15 171.759 323.457 161.133 323.59C150.679 323.31 139.133 321.617 131.639 313.59C124.293 306.097 125.893 293.577 131.946 285.79C141.066 274.217 154.213 266.964 166.626 259.484C188.719 247.764 211.773 238.017 234.093 226.75C241.333 223.004 249.453 220.324 255.213 214.324C256.746 211.15 252.599 210.057 250.439 209.23C242.333 205.87 233.466 206.284 224.999 204.577C205.359 201.964 185.559 201.444 165.906 198.964C154.306 196.977 141.893 195.19 132.533 187.417C123.826 180.644 120.746 168.204 124.373 157.937C126.759 151.297 131.066 145.537 135.813 140.39C151.093 125.777 169.693 115.164 188.813 106.417C212.546 95.0038 237.613 86.4571 263.279 80.6038Z" fill="#136FFC"/>
<path d="M1417.27 153.444C1430.29 149.604 1444.35 149.164 1457.6 152.07C1468.28 154.017 1478.16 159.884 1485.25 168.057C1489.6 173.07 1491.29 180.324 1489.11 186.617C1485.59 194.99 1471.84 195.11 1468.29 186.75C1466.43 182.497 1463.29 178.817 1459.15 176.657C1451.16 172.417 1441.8 172.164 1432.99 172.817C1425.57 173.51 1417.64 176.617 1414 183.524C1410.6 189.857 1413.41 198.257 1419.51 201.817C1428.92 208.257 1440.85 207.75 1451.51 210.59C1462.51 213.31 1474.25 215.95 1483.08 223.51C1499.79 237.737 1498.63 267.257 1481.17 280.377C1472.27 288.15 1460.4 290.937 1449 292.484C1436.29 293.644 1423.07 292.737 1411.36 287.297C1401.89 282.857 1392.49 276.577 1387.87 266.844C1385.09 261.884 1384.35 254.737 1388.63 250.39C1392.51 246.537 1398.96 245.07 1403.8 248.044C1407.23 249.59 1408.37 253.417 1410.19 256.404C1414.73 264.644 1423.84 269.657 1433.11 270.364C1442.07 272.497 1451.71 270.964 1460.07 267.284C1470.01 263.524 1473.67 248.457 1465.49 241.23C1460.73 236.817 1454.03 235.804 1448.03 233.977C1432.84 229.777 1415.92 229.51 1402.73 219.91C1388.57 210.737 1384.59 190.977 1391.17 176.03C1395.53 164.777 1406.19 157.244 1417.27 153.444Z" fill="#136FFC"/>
<path d="M1577.48 151.177C1591.55 149.297 1606.81 150.55 1619.03 158.39C1630.11 165.084 1637.72 176.257 1641.68 188.43C1646.83 201.057 1645.72 214.87 1645.84 228.19C1646.09 238.47 1643.37 248.524 1640.09 258.164C1634.77 272.777 1622.29 284.15 1607.81 289.39C1595.41 293.51 1581.85 293.47 1569.33 289.977C1560.36 286.697 1551.68 281.59 1545.99 273.764C1545.71 291.457 1545.85 309.164 1545.75 326.857C1545.68 332.977 1546.88 340.324 1541.83 344.937C1535.43 351.577 1521.64 347.364 1521.61 337.63C1521.76 279.83 1521.56 222.044 1521.65 164.257C1521.32 158.937 1525.01 153.577 1530.17 152.124C1534.96 150.777 1540.75 152.044 1543.76 156.23C1547 160.097 1545.56 165.484 1545.97 170.07C1552.91 159.284 1564.99 152.937 1577.48 151.177ZM1576.67 173.484C1564.48 175.457 1553.85 184.39 1549.73 195.99C1544.51 209.35 1546.19 223.87 1547.13 237.804C1548.43 246.524 1553.19 254.417 1559.05 260.857C1567.51 269.47 1580.67 271.55 1592.15 269.484C1603.63 267.244 1612.88 258.15 1616.76 247.31C1621.08 235.337 1620.84 222.364 1620 209.844C1619.19 200.044 1616.04 190.07 1609.15 182.817C1600.93 174.257 1588.08 171.337 1576.67 173.484Z" fill="#136FFC"/>
<path d="M1686.65 161.844C1695.6 154.564 1707.17 151.844 1718.4 150.564C1734.13 149.497 1751.25 151.204 1764.24 161.017C1774.79 168.857 1779.56 182.23 1780.68 194.897C1780.64 223.364 1780.75 251.83 1780.59 280.297C1781.04 288.937 1769.47 294.324 1762.8 289.124C1756.79 286.23 1757.01 278.737 1756.35 273.124C1750.69 281.857 1741.07 287.03 1731.52 290.43C1715.08 294.457 1695.92 294.07 1682.03 283.27C1665.85 270.684 1663.2 245.737 1673.47 228.63C1679.13 219.124 1689.67 213.977 1699.99 211.204C1718.24 205.577 1737.48 208.15 1756.24 207.457C1756.15 200.324 1757.07 192.764 1753.56 186.23C1749.33 176.95 1738.69 172.724 1729.01 172.577C1719.29 172.177 1708.32 173.07 1701.12 180.43C1698.16 183.724 1696.97 188.497 1693.04 190.91C1686.47 195.43 1675.89 190.764 1674.99 182.777C1673.55 174.004 1680.33 166.857 1686.65 161.844ZM1703.04 233.044C1690.79 238.337 1688.97 256.63 1698.91 265.004C1704.83 270.657 1713.39 270.764 1721.07 270.484C1732.32 270.657 1743.63 265.124 1750.08 255.83C1755.92 247.844 1756.72 237.457 1756.08 227.897C1738.44 228.55 1719.51 225.177 1703.04 233.044Z" fill="#136FFC"/>
<path d="M1856.57 151.91C1869.19 149.284 1882.48 149.884 1894.93 153.204C1906.25 156.724 1916.83 163.884 1923.11 174.084C1926.17 178.71 1926.75 184.657 1925.4 189.964C1923.25 193.937 1919.15 197.337 1914.41 197.084C1909.53 197.577 1904.85 194.257 1903.19 189.764C1899.53 180.697 1890.23 175.27 1880.96 173.617C1869.88 171.057 1857.67 174.017 1849.08 181.484C1841.11 189.057 1837.55 200.097 1836.47 210.79C1836.15 225.67 1835.03 241.95 1843.76 254.924C1852.56 269.804 1873.17 273.35 1888.37 267.137C1895.81 264.63 1901.16 258.297 1904.71 251.537C1908.68 243.524 1921.95 244.217 1925.59 252.19C1928.61 258.644 1925.49 266.07 1921.65 271.47C1911.84 283.164 1897.21 290.91 1881.96 292.057C1873.05 293.777 1864.03 292.297 1855.21 290.884C1841.15 287.364 1828.04 278.63 1820.63 266.017C1814.28 256.444 1812.37 244.857 1811.11 233.67C1810.4 214.617 1810.23 194.004 1820.81 177.31C1828.47 164.297 1841.81 154.977 1856.57 151.91Z" fill="#136FFC"/>
<path d="M1969.8 164.964C1985.72 150.684 2009.04 147.257 2029.32 152.404C2042.12 155.604 2053.85 163.897 2060.36 175.497C2066.65 186.604 2070.16 199.39 2069.81 212.19C2069.65 217.23 2070.72 223.284 2066.48 227.057C2062.35 231.524 2055.8 230.377 2050.37 230.457C2025.61 230.404 2000.84 230.337 1976.08 230.47C1974.91 242.217 1980.21 253.884 1988.72 261.817C1995.77 267.79 2005.15 270.977 2014.41 270.257C2025.95 270.924 2037.97 265.284 2043.87 255.124C2048.35 246.124 2064.25 248.884 2065.73 258.764C2066.57 264.377 2063.71 269.697 2059.92 273.617C2045.72 289.07 2023.19 294.91 2002.84 292.164C1992.27 291.31 1982.19 287.177 1973.49 281.217C1961.13 272.244 1954.6 257.417 1951.59 242.844C1949.95 230.964 1949.04 218.857 1950.65 206.924C1951.91 191.377 1957.89 175.457 1969.8 164.964ZM1992.49 177.27C1982.03 184.07 1975.13 196.497 1976.08 209.097C1998.96 208.75 2021.84 209.417 2044.73 208.99C2046.29 193.737 2036.61 176.857 2021 173.644C2011.51 171.71 2000.95 172.124 1992.49 177.27Z" fill="#136FFC"/>
</svg>
